<svg xmlns="http://www.w3.org/2000/svg" xml:space="preserve" width="512" height="512"><path d="M0-219.555c121.194 0 219.555 98.36 219.555 219.555 0 121.194-98.36 219.555-219.555 219.555-121.194 0-219.555-98.36-219.555-219.555 0-121.194 98.36-219.555 219.555-219.555z" style="stroke:#2049ac;stroke-width:0;stroke-dasharray:none;stroke-linecap:butt;stroke-dashoffset:0;stroke-linejoin:miter;stroke-miterlimit:4;fill:#c084fc;fill-rule:nonzero;opacity:1" transform="matrix(1.166 0 0 1.166 256 256)"/><path d="M172.946 222.56h-1.632l2.208-8.4h2.76l2.208 8.4h-1.632l-.456-1.848h-3l-.456 1.848Zm1.848-7.404-1.02 4.092h2.256l-1.02-4.092h-.216Z" style="stroke:none;stroke-width:0;stroke-dasharray:none;stroke-linecap:butt;stroke-dashoffset:0;stroke-linejoin:miter;stroke-miterlimit:4;fill:#f4f4f5;fill-rule:nonzero;opacity:1" transform="matrix(45.71429 0 0 45.71429 -7739.52 -9726.171)"/></svg>