<svg xmlns="http://www.w3.org/2000/svg" xml:space="preserve" width="512" height="512"><path d="M0-40.266c22.227 0 40.266 18.039 40.266 40.266 0 22.227-18.039 40.266-40.266 40.266-22.227 0-40.266-18.039-40.266-40.266 0-22.227 18.039-40.266 40.266-40.266z" style="stroke:#1172aa;stroke-width:0;stroke-dasharray:none;stroke-linecap:butt;stroke-dashoffset:0;stroke-linejoin:miter;stroke-miterlimit:4;fill:#27272a;fill-rule:nonzero;opacity:1" transform="matrix(6.35766 0 0 6.35766 256 256)"/><path d="M278.251 238.213h-46.592l-16.128-37.376h-79.872l-16.128 37.376h-47.36l84.224-180.48h37.376l84.48 180.48Zm-102.656-130.56-24.832 57.856h49.664l-24.832-57.856Z" style="stroke:none;stroke-width:1;stroke-dasharray:none;stroke-linecap:butt;stroke-dashoffset:0;stroke-linejoin:miter;stroke-miterlimit:4;fill:#f87171;fill-rule:nonzero;opacity:1" transform="matrix(1.86335 0 0 1.86335 -70.48 -19.726)"/></svg>