<?xml version="1.0" encoding="UTF-8" standalone="no" ?>
<!DOCTYPE svg PUBLIC "-//W3C//DTD SVG 1.1//EN" "http://www.w3.org/Graphics/SVG/1.1/DTD/svg11.dtd">
<svg xmlns="http://www.w3.org/2000/svg" xmlns:xlink="http://www.w3.org/1999/xlink" version="1.1" width="1200" height="630" viewBox="0 0 1200 630" xml:space="preserve">
<desc>Created with Fabric.js 5.3.0</desc>
<defs>
</defs>
<g transform="matrix(0.9549902158 0 0 0.9453874598 600 315)" id="zrpXObfYDWLhkNcwJdJU3"  >
<path style="stroke: rgb(45,129,25); stroke-width: 0; stroke-dasharray: none; stroke-linecap: butt; stroke-dashoffset: 0; stroke-linejoin: miter; stroke-miterlimit: 4; fill: rgb(248,113,113); fill-rule: nonzero; opacity: 1;"  transform=" translate(0, 0)" d="M -628.27869 -333.19672 L 628.27869 -333.19672 L 628.27869 333.19672 L -628.27869 333.19672 z" stroke-linecap="round" />
</g>
<g transform="matrix(5.9776833031 0 0 5.9776833156 600 315)" id="tNcxIo1nBFQfud8QC38cK"  >
<path style="stroke: rgb(255,255,255); stroke-opacity: 0; stroke-width: 0; stroke-dasharray: none; stroke-linecap: butt; stroke-dashoffset: 0; stroke-linejoin: miter; stroke-miterlimit: 4; fill: rgb(24,24,27); fill-rule: nonzero; opacity: 1;"  transform=" translate(-777.028, -229.084)" d="M 730.954 223.512 L 729.638 220.096 L 722.19 220.096 L 720.874 223.512 L 714.154 223.512 L 722.722 203.912 L 729.218 203.912 L 737.786 223.512 L 730.954 223.512 Z M 724.01 215.336 L 727.818 215.336 L 725.914 210.408 L 724.01 215.336 Z M 749.294 207.916 Q 752.122 207.916 753.844 209.624 Q 755.566 211.332 755.566 214.776 L 755.566 214.776 L 755.566 223.512 L 749.238 223.512 L 749.238 215.868 Q 749.238 213.236 747.362 213.236 L 747.362 213.236 Q 746.298 213.236 745.64 213.978 Q 744.982 214.72 744.982 216.316 L 744.982 216.316 L 744.982 223.512 L 738.654 223.512 L 738.654 208.196 L 744.674 208.196 L 744.674 209.708 Q 745.57 208.812 746.746 208.364 Q 747.922 207.916 749.294 207.916 L 749.294 207.916 Z M 769.202 202.736 L 775.53 202.736 L 775.53 223.512 L 769.51 223.512 L 769.51 222.252 Q 768.138 223.792 765.31 223.792 L 765.31 223.792 Q 763.294 223.792 761.6 222.826 Q 759.906 221.86 758.912 220.04 Q 757.918 218.22 757.918 215.84 L 757.918 215.84 Q 757.918 213.46 758.912 211.654 Q 759.906 209.848 761.6 208.882 Q 763.294 207.916 765.31 207.916 L 765.31 207.916 Q 767.858 207.916 769.202 209.232 L 769.202 209.232 L 769.202 202.736 Z M 766.822 218.864 Q 767.914 218.864 768.614 218.066 Q 769.314 217.268 769.314 215.84 L 769.314 215.84 Q 769.314 214.412 768.614 213.628 Q 767.914 212.844 766.822 212.844 L 766.822 212.844 Q 765.73 212.844 765.03 213.628 Q 764.33 214.412 764.33 215.84 L 764.33 215.84 Q 764.33 217.268 765.03 218.066 Q 765.73 218.864 766.822 218.864 L 766.822 218.864 Z M 794.626 215.84 Q 794.626 215.98 794.542 217.324 L 794.542 217.324 L 783.902 217.324 Q 784.238 218.192 785.022 218.654 Q 785.806 219.116 786.982 219.116 L 786.982 219.116 Q 787.99 219.116 788.676 218.864 Q 789.362 218.612 790.174 217.996 L 790.174 217.996 L 793.478 221.328 Q 791.238 223.792 786.786 223.792 L 786.786 223.792 Q 784.014 223.792 781.914 222.77 Q 779.814 221.748 778.666 219.928 Q 777.518 218.108 777.518 215.84 L 777.518 215.84 Q 777.518 213.544 778.652 211.738 Q 779.786 209.932 781.76 208.924 Q 783.734 207.916 786.198 207.916 L 786.198 207.916 Q 788.522 207.916 790.44 208.84 Q 792.358 209.764 793.492 211.556 Q 794.626 213.348 794.626 215.84 L 794.626 215.84 Z M 786.254 212.228 Q 785.274 212.228 784.63 212.76 Q 783.986 213.292 783.79 214.272 L 783.79 214.272 L 788.718 214.272 Q 788.522 213.32 787.878 212.774 Q 787.234 212.228 786.254 212.228 L 786.254 212.228 Z M 802.634 209.848 Q 804.314 207.916 807.59 207.916 L 807.59 207.916 L 807.59 213.516 Q 806.834 213.404 806.19 213.404 L 806.19 213.404 Q 802.942 213.404 802.942 216.708 L 802.942 216.708 L 802.942 223.512 L 796.614 223.512 L 796.614 208.196 L 802.634 208.196 L 802.634 209.848 Z M 809.298 212.312 L 808.878 203.912 L 814.198 203.912 L 813.778 212.312 L 809.298 212.312 Z M 822.486 223.792 Q 820.526 223.792 818.622 223.372 Q 816.718 222.952 815.542 222.28 L 815.542 222.28 L 817.278 218.108 Q 818.342 218.752 819.798 219.116 Q 821.254 219.48 822.626 219.48 L 822.626 219.48 Q 823.718 219.48 824.152 219.298 Q 824.586 219.116 824.586 218.752 L 824.586 218.752 Q 824.586 218.388 824.04 218.248 Q 823.494 218.108 822.262 217.968 L 822.262 217.968 Q 820.386 217.744 819.07 217.394 Q 817.754 217.044 816.76 216.036 Q 815.766 215.028 815.766 213.152 L 815.766 213.152 Q 815.766 211.668 816.662 210.492 Q 817.558 209.316 819.336 208.616 Q 821.114 207.916 823.606 207.916 L 823.606 207.916 Q 825.342 207.916 827.008 208.238 Q 828.674 208.56 829.85 209.176 L 829.85 209.176 L 828.114 213.348 Q 826.098 212.228 823.69 212.228 L 823.69 212.228 Q 821.618 212.228 821.618 212.956 L 821.618 212.956 Q 821.618 213.32 822.178 213.474 Q 822.738 213.628 823.942 213.768 L 823.942 213.768 Q 825.818 213.992 827.12 214.356 Q 828.422 214.72 829.416 215.728 Q 830.41 216.736 830.41 218.612 L 830.41 218.612 Q 830.41 220.04 829.514 221.216 Q 828.618 222.392 826.826 223.092 Q 825.034 223.792 822.486 223.792 L 822.486 223.792 Z M 741.902 235.552 L 748.174 235.552 L 741.902 255.152 L 734.818 255.152 L 731.654 244.68 L 728.322 255.152 L 721.238 255.152 L 714.966 235.552 L 721.77 235.552 L 725.186 246.696 L 728.798 235.552 L 734.874 235.552 L 738.29 246.836 L 741.902 235.552 Z M 764.61 247.48 Q 764.61 247.62 764.526 248.964 L 764.526 248.964 L 753.886 248.964 Q 754.222 249.832 755.006 250.294 Q 755.79 250.756 756.966 250.756 L 756.966 250.756 Q 757.974 250.756 758.66 250.504 Q 759.346 250.252 760.158 249.636 L 760.158 249.636 L 763.462 252.968 Q 761.222 255.432 756.77 255.432 L 756.77 255.432 Q 753.998 255.432 751.898 254.41 Q 749.798 253.388 748.65 251.568 Q 747.502 249.748 747.502 247.48 L 747.502 247.48 Q 747.502 245.184 748.636 243.378 Q 749.77 241.572 751.744 240.564 Q 753.718 239.556 756.182 239.556 L 756.182 239.556 Q 758.506 239.556 760.424 240.48 Q 762.342 241.404 763.476 243.196 Q 764.61 244.988 764.61 247.48 L 764.61 247.48 Z M 756.238 243.868 Q 755.258 243.868 754.614 244.4 Q 753.97 244.932 753.774 245.912 L 753.774 245.912 L 758.702 245.912 Q 758.506 244.96 757.862 244.414 Q 757.218 243.868 756.238 243.868 L 756.238 243.868 Z M 776.818 239.556 Q 778.834 239.556 780.528 240.522 Q 782.222 241.488 783.216 243.294 Q 784.21 245.1 784.21 247.48 L 784.21 247.48 Q 784.21 249.86 783.216 251.68 Q 782.222 253.5 780.528 254.466 Q 778.834 255.432 776.818 255.432 L 776.818 255.432 Q 773.99 255.432 772.618 253.892 L 772.618 253.892 L 772.618 255.152 L 766.598 255.152 L 766.598 234.376 L 772.926 234.376 L 772.926 240.872 Q 774.27 239.556 776.818 239.556 L 776.818 239.556 Z M 775.306 250.504 Q 776.398 250.504 777.098 249.706 Q 777.798 248.908 777.798 247.48 L 777.798 247.48 Q 777.798 246.052 777.098 245.268 Q 776.398 244.484 775.306 244.484 L 775.306 244.484 Q 774.214 244.484 773.514 245.268 Q 772.814 246.052 772.814 247.48 L 772.814 247.48 Q 772.814 248.908 773.514 249.706 Q 774.214 250.504 775.306 250.504 L 775.306 250.504 Z M 792.19 255.432 Q 790.23 255.432 788.326 255.012 Q 786.422 254.592 785.246 253.92 L 785.246 253.92 L 786.982 249.748 Q 788.046 250.392 789.502 250.756 Q 790.958 251.12 792.33 251.12 L 792.33 251.12 Q 793.422 251.12 793.856 250.938 Q 794.29 250.756 794.29 250.392 L 794.29 250.392 Q 794.29 250.028 793.744 249.888 Q 793.198 249.748 791.966 249.608 L 791.966 249.608 Q 790.09 249.384 788.774 249.034 Q 787.458 248.684 786.464 247.676 Q 785.47 246.668 785.47 244.792 L 785.47 244.792 Q 785.47 243.308 786.366 242.132 Q 787.262 240.956 789.04 240.256 Q 790.818 239.556 793.31 239.556 L 793.31 239.556 Q 795.046 239.556 796.712 239.878 Q 798.378 240.2 799.554 240.816 L 799.554 240.816 L 797.818 244.988 Q 795.802 243.868 793.394 243.868 L 793.394 243.868 Q 791.322 243.868 791.322 244.596 L 791.322 244.596 Q 791.322 244.96 791.882 245.114 Q 792.442 245.268 793.646 245.408 L 793.646 245.408 Q 795.522 245.632 796.824 245.996 Q 798.126 246.36 799.12 247.368 Q 800.114 248.376 800.114 250.252 L 800.114 250.252 Q 800.114 251.68 799.218 252.856 Q 798.322 254.032 796.53 254.732 Q 794.738 255.432 792.19 255.432 L 792.19 255.432 Z M 802.018 255.152 L 802.018 239.836 L 808.346 239.836 L 808.346 255.152 L 802.018 255.152 Z M 805.182 238.604 Q 803.474 238.604 802.424 237.694 Q 801.374 236.784 801.374 235.384 L 801.374 235.384 Q 801.374 233.984 802.424 233.074 Q 803.474 232.164 805.182 232.164 L 805.182 232.164 Q 806.918 232.164 807.954 233.032 Q 808.99 233.9 808.99 235.272 L 808.99 235.272 Q 808.99 236.728 807.954 237.666 Q 806.918 238.604 805.182 238.604 L 805.182 238.604 Z M 820.918 250.224 L 822.43 254.62 Q 821.002 255.432 818.538 255.432 L 818.538 255.432 Q 815.318 255.432 813.582 253.878 Q 811.846 252.324 811.846 249.216 L 811.846 249.216 L 811.846 245.296 L 809.746 245.296 L 809.746 240.676 L 811.846 240.676 L 811.846 236.392 L 818.174 236.392 L 818.174 240.676 L 821.31 240.676 L 821.31 245.296 L 818.174 245.296 L 818.174 249.16 Q 818.174 249.86 818.538 250.252 Q 818.902 250.644 819.49 250.644 L 819.49 250.644 Q 820.302 250.644 820.918 250.224 L 820.918 250.224 Z M 839.902 247.48 Q 839.902 247.62 839.818 248.964 L 839.818 248.964 L 829.178 248.964 Q 829.514 249.832 830.298 250.294 Q 831.082 250.756 832.258 250.756 L 832.258 250.756 Q 833.266 250.756 833.952 250.504 Q 834.638 250.252 835.45 249.636 L 835.45 249.636 L 838.754 252.968 Q 836.514 255.432 832.062 255.432 L 832.062 255.432 Q 829.29 255.432 827.19 254.41 Q 825.09 253.388 823.942 251.568 Q 822.794 249.748 822.794 247.48 L 822.794 247.48 Q 822.794 245.184 823.928 243.378 Q 825.062 241.572 827.036 240.564 Q 829.01 239.556 831.474 239.556 L 831.474 239.556 Q 833.798 239.556 835.716 240.48 Q 837.634 241.404 838.768 243.196 Q 839.902 244.988 839.902 247.48 L 839.902 247.48 Z M 831.53 243.868 Q 830.55 243.868 829.906 244.4 Q 829.262 244.932 829.066 245.912 L 829.066 245.912 L 833.994 245.912 Q 833.798 244.96 833.154 244.414 Q 832.51 243.868 831.53 243.868 L 831.53 243.868 Z" stroke-linecap="round" />
</g>
</svg>