<svg xmlns="http://www.w3.org/2000/svg" xml:space="preserve" width="512" height="512">
    <path d="M0-40.266c22.227 0 40.266 18.039 40.266 40.266 0 22.227-18.039 40.266-40.266 40.266-22.227 0-40.266-18.039-40.266-40.266 0-22.227 18.039-40.266 40.266-40.266z" style="stroke:#1172aa;stroke-width:0;stroke-dasharray:none;stroke-linecap:butt;stroke-dashoffset:0;stroke-linejoin:miter;stroke-miterlimit:4;fill:#27272a;fill-rule:nonzero;opacity:1" transform="matrix(6.35766 0 0 6.35766 256 256)"/>
    <path d="M112.364 221.384h-2.184l-.756-1.752h-3.744l-.756 1.752h-2.22l3.948-8.46h1.752l3.96 8.46Zm-4.812-6.12-1.164 2.712h2.328l-1.164-2.712Z" style="stroke:none;stroke-width:0;stroke-dasharray:none;stroke-linecap:butt;stroke-dashoffset:0;stroke-linejoin:miter;stroke-miterlimit:4;fill:#f87171;fill-rule:nonzero;opacity:1" transform="matrix(39.75155 0 0 39.75155 -4018.643 -8376.209)"/>
</svg>